<?xml version="1.0" encoding="utf-8"?>
<!-- Generator: Adobe Illustrator 16.0.4, SVG Export Plug-In . SVG Version: 6.00 Build 0)  -->
<!DOCTYPE svg PUBLIC "-//W3C//DTD SVG 1.1//EN" "http://www.w3.org/Graphics/SVG/1.1/DTD/svg11.dtd">
<svg version="1.1" xmlns="http://www.w3.org/2000/svg" xmlns:xlink="http://www.w3.org/1999/xlink" x="0px" y="0px"
	 width="3936.338px" height="500px" viewBox="0 0 3936.338 500" enable-background="new 0 0 3936.338 500" xml:space="preserve">
<g id="Layer_1_copy_2">
	<g>
		<g>
			<g>
				<g>
					<path d="M271.016,301.679c-10.043,35.987-43.102,66.117-95.827,66.117c-57.329,0-108.38-41.01-108.38-110.89
						c0-66.955,49.795-109.638,103.777-109.638c64.859,0,104.196,39.335,104.196,106.708c0,8.787-0.837,18.412-1.256,19.666H128.739
						c1.255,23.434,22.597,40.174,47.286,40.174c23.434,0,35.569-10.882,41.846-27.2L271.016,301.679z M213.269,232.634
						c-1.256-15.482-11.718-35.151-41.846-35.151c-26.782,0-40.173,19.668-41.429,35.151H213.269z"/>
				</g>
			</g>
			<g>
				<g>
					<path d="M321.513,361.519V153.545h60.677v23.853c10.044-18.412,37.243-30.129,59.839-30.129
						c30.13,0,51.054,12.137,61.514,32.642c16.321-23.436,35.988-32.642,64.444-32.642c39.334,0,76.996,22.598,76.996,79.508
						v134.742h-61.514V241.004c0-19.669-10.043-35.151-33.059-35.151s-34.732,17.157-34.732,35.568v120.098h-62.769V241.004
						c0-19.669-10.044-35.151-33.477-35.151c-22.179,0-34.313,17.157-34.313,35.987v119.679H321.513z"/>
				</g>
			</g>
			<g>
				<g>
					<path d="M967.407,153.545h63.606v223.04c0,41.845-26.363,70.719-68.627,70.719c-22.179,0-32.222-4.603-35.151-5.857V388.72
						c2.93,1.254,9.207,2.51,18.832,2.51c14.646,0,21.34-8.368,21.34-21.341V153.545z M998.793,52.696
						c21.34,0,37.66,15.902,37.66,37.245c0,20.504-16.32,37.242-37.66,37.242c-20.087,0-36.826-16.737-36.826-37.242
						C961.967,68.598,978.706,52.696,998.793,52.696z"/>
				</g>
			</g>
			<g>
				<g>
					<path d="M1124.201,52.696c21.34,0,37.661,16.74,37.661,37.245c0,20.504-16.321,37.242-37.661,37.242
						c-20.087,0-36.826-16.737-36.826-37.242C1087.375,69.436,1104.114,52.696,1124.201,52.696z M1092.815,361.519V153.545h63.606
						v207.974H1092.815z"/>
				</g>
			</g>
			<g>
				<g>
					<path d="M1268.558,257.741c0,33.059,22.179,51.47,48.542,51.47c24.688,0,38.498-15.482,43.102-30.965l56.073,17.156
						c-8.788,36.406-43.938,72.394-99.175,72.394c-61.933,0-111.729-45.612-111.729-110.055
						c0-64.861,48.541-110.473,109.636-110.473c57.33,0,90.806,35.151,100.012,72.393l-56.909,17.157
						c-4.604-15.902-17.158-30.965-41.847-30.965C1289.899,205.853,1268.558,224.264,1268.558,257.741z"/>
				</g>
			</g>
			<g>
				<g>
					<path d="M1801.379,361.519h-63.607V153.545h61.514v23.853c10.88-19.667,37.242-29.291,58.165-29.291
						c52.308,0,75.741,37.242,75.741,82.854v130.559h-63.606V241.84c0-20.505-10.46-35.987-33.894-35.987
						c-21.343,0-34.312,15.063-34.312,36.406V361.519z"/>
				</g>
			</g>
			<path d="M1574.39,129.739c-69.076,0-125.073,55.997-125.073,125.074c0,69.076,55.997,125.074,125.073,125.074
				c69.077,0,125.074-55.998,125.074-125.074C1699.464,185.736,1643.467,129.739,1574.39,129.739z M1613.862,208.375
				c8.298,0,15.025,9.755,15.025,21.788c0,12.033-6.728,21.788-15.025,21.788s-15.025-9.754-15.025-21.788
				C1598.837,218.13,1605.564,208.375,1613.862,208.375z M1534.917,208.375c8.299,0,15.026,9.755,15.026,21.788
				c0,12.033-6.728,21.788-15.026,21.788c-8.298,0-15.025-9.754-15.025-21.788C1519.892,218.13,1526.619,208.375,1534.917,208.375z
				 M1632.252,297.359c-12.305,18.911-33.617,31.421-57.862,31.421c-24.244,0-45.558-12.509-57.862-31.42
				c-1.715-2.637,1.479-5.656,4.108-3.932c15.442,10.132,33.904,16.034,53.754,16.034s38.312-5.903,53.755-16.035
				C1630.773,291.703,1633.967,294.724,1632.252,297.359z"/>
			<g>
				<g>
					<path d="M856.447,143.032c-22.755,0-42.704,11.842-54.146,29.667c-11.44-17.825-31.391-29.667-54.145-29.667
						c-35.537,0-64.347,28.809-64.347,64.346c0,84.362,118.491,159.214,118.491,159.214s118.491-74.853,118.491-159.214
						C920.793,171.841,891.984,143.032,856.447,143.032z"/>
				</g>
			</g>
		</g>
	</g>
	<g>
		<path d="M2176.973,358.298h-23.971V69.825h23.971V197.68c9.988-19.178,31.166-34.761,61.131-34.761
			c45.15,0,67.525,31.564,67.525,71.119v124.26h-23.974V238.035c0-29.967-15.583-53.54-51.542-53.54
			c-31.963,0-53.141,27.969-53.141,59.132V358.298z"/>
		<path d="M2568.92,304.358c-10.787,32.363-39.555,59.134-83.506,59.134c-50.342,0-92.695-37.158-92.695-101.086
			c0-59.531,40.754-99.886,88.301-99.886c55.536,0,89.1,40.355,89.1,96.291c0,3.196-0.4,5.594-0.799,8.791h-151.829v1.597
			c0,43.951,30.767,73.117,67.923,73.117c34.361,0,53.939-20.376,62.33-45.548L2568.92,304.358z M2544.947,247.625
			c-1.197-35.16-23.572-63.528-63.527-63.528c-35.161,0-61.132,28.368-63.13,63.528H2544.947z"/>
		<path d="M2705.154,252.817l50.743-7.59c15.58-2.797,19.978-9.589,19.978-18.779c0-25.571-17.183-43.152-47.947-43.152
			c-30.366,0-50.343,17.182-53.14,44.749l-23.173-5.193c4.395-36.759,35.559-60.332,75.914-60.332
			c49.543,0,72.316,29.566,72.316,66.325v96.69c0,15.583,1.2,24.772,2.398,32.763h-23.174c-1.2-4.395-2.397-17.18-2.397-32.763
			c-9.19,17.579-31.565,37.558-66.325,37.558c-39.954,0-62.728-26.371-62.728-53.938
			C2647.62,276.791,2669.994,258.811,2705.154,252.817z M2775.875,280.387v-22.774c-2,1.996-16.781,6.393-25.173,7.59l-42.351,6.393
			c-22.375,3.196-35.962,15.583-35.962,36.358c0,17.581,13.985,34.761,40.755,34.761
			C2749.904,342.715,2775.875,318.743,2775.875,280.387z"/>
		<path d="M2936.487,167.715h49.544v21.973h-49.544v114.67c0,22.773,10.789,34.361,32.362,34.361c6.793,0,14.385-1.597,17.182-2.797
			V356.7c-3.195,1.598-11.986,3.596-23.574,3.596c-30.764,0-49.941-18.38-49.941-53.54V189.688h-40.355v-21.973h14.385
			c18.777,0,27.967-9.19,27.967-27.969v-32.363h21.976V167.715z"/>
		<path d="M3074.729,358.298V167.715h23.174v31.562c9.191-19.578,30.766-36.358,60.732-36.358c29.965,0,52.34,15.981,59.93,43.152
			c11.588-27.569,35.162-43.152,65.527-43.152c37.158,0,65.926,25.571,65.926,69.521v125.857h-23.974v-123.06
			c0-28.768-16.78-51.142-48.745-51.142c-31.963,0-53.14,26.37-53.14,57.535v116.667h-23.972v-123.06
			c0-28.768-16.381-51.142-48.744-51.142c-31.965,0-53.141,25.97-53.141,57.535v116.667H3074.729z"/>
		<path d="M3497.035,252.817l50.744-7.59c15.582-2.797,19.979-9.589,19.979-18.779c0-25.571-17.182-43.152-47.947-43.152
			c-30.365,0-50.342,17.182-53.139,44.749l-23.174-5.193c4.395-36.759,35.56-60.332,75.912-60.332
			c49.545,0,72.319,29.566,72.319,66.325v96.69c0,15.583,1.198,24.772,2.397,32.763h-23.175c-1.198-4.395-2.396-17.18-2.396-32.763
			c-9.19,17.579-31.564,37.558-66.325,37.558c-39.956,0-62.73-26.371-62.73-53.938
			C3439.501,276.791,3461.876,258.811,3497.035,252.817z M3567.758,280.387v-22.774c-1.998,1.996-16.783,6.393-25.172,7.59
			l-42.354,6.393c-22.375,3.196-35.959,15.583-35.959,36.358c0,17.581,13.986,34.761,40.754,34.761
			C3541.785,342.715,3567.758,318.743,3567.758,280.387z"/>
		<path d="M3694.002,434.212V167.715h23.576v37.955c9.588-19.578,30.766-42.352,69.122-42.352c53.937,0,86.3,43.152,86.3,99.487
			c0,56.736-33.561,100.287-87.102,100.287c-36.756,0-58.732-21.575-68.32-40.754v111.873H3694.002z M3782.703,184.495
			c-39.954,0-65.525,33.96-65.525,78.311c0,45.148,25.571,79.11,65.525,79.11c39.955,0,65.926-34.361,65.926-79.11
			C3848.629,218.056,3822.658,184.495,3782.703,184.495z"/>
	</g>
</g>
<g id="Layer_1_copy">
	<g>
		<g>
			<g>
				<g>
					<path d="M271.016,301.679c-10.043,35.987-43.102,66.117-95.827,66.117c-57.329,0-108.38-41.01-108.38-110.89
						c0-66.955,49.795-109.638,103.777-109.638c64.859,0,104.196,39.335,104.196,106.708c0,8.787-0.837,18.412-1.256,19.666H128.739
						c1.255,23.434,22.597,40.174,47.286,40.174c23.434,0,35.569-10.882,41.846-27.2L271.016,301.679z M213.269,232.634
						c-1.256-15.482-11.718-35.151-41.846-35.151c-26.782,0-40.173,19.668-41.429,35.151H213.269z"/>
				</g>
			</g>
			<g>
				<g>
					<path d="M321.513,361.519V153.545h60.677v23.853c10.044-18.412,37.243-30.129,59.839-30.129
						c30.13,0,51.054,12.137,61.514,32.642c16.321-23.436,35.988-32.642,64.444-32.642c39.334,0,76.996,22.598,76.996,79.508
						v134.742h-61.514V241.004c0-19.669-10.043-35.151-33.059-35.151s-34.732,17.157-34.732,35.568v120.098h-62.769V241.004
						c0-19.669-10.044-35.151-33.477-35.151c-22.179,0-34.313,17.157-34.313,35.987v119.679H321.513z"/>
				</g>
			</g>
			<g>
				<g>
					<path d="M967.407,153.545h63.606v223.04c0,41.845-26.363,70.719-68.627,70.719c-22.179,0-32.222-4.603-35.151-5.857V388.72
						c2.93,1.254,9.207,2.51,18.832,2.51c14.646,0,21.34-8.368,21.34-21.341V153.545z M998.793,52.696
						c21.34,0,37.66,15.902,37.66,37.245c0,20.504-16.32,37.242-37.66,37.242c-20.087,0-36.826-16.737-36.826-37.242
						C961.967,68.598,978.706,52.696,998.793,52.696z"/>
				</g>
			</g>
			<g>
				<g>
					<path d="M1124.201,52.696c21.34,0,37.661,16.74,37.661,37.245c0,20.504-16.321,37.242-37.661,37.242
						c-20.087,0-36.826-16.737-36.826-37.242C1087.375,69.436,1104.114,52.696,1124.201,52.696z M1092.815,361.519V153.545h63.606
						v207.974H1092.815z"/>
				</g>
			</g>
			<g>
				<g>
					<path d="M1268.558,257.741c0,33.059,22.179,51.47,48.542,51.47c24.688,0,38.498-15.482,43.102-30.965l56.073,17.156
						c-8.788,36.406-43.938,72.394-99.175,72.394c-61.933,0-111.729-45.612-111.729-110.055
						c0-64.861,48.541-110.473,109.636-110.473c57.33,0,90.806,35.151,100.012,72.393l-56.909,17.157
						c-4.604-15.902-17.158-30.965-41.847-30.965C1289.899,205.853,1268.558,224.264,1268.558,257.741z"/>
				</g>
			</g>
			<g>
				<g>
					<path d="M1801.379,361.519h-63.607V153.545h61.514v23.853c10.88-19.667,37.242-29.291,58.165-29.291
						c52.308,0,75.741,37.242,75.741,82.854v130.559h-63.606V241.84c0-20.505-10.46-35.987-33.894-35.987
						c-21.343,0-34.312,15.063-34.312,36.406V361.519z"/>
				</g>
			</g>
			<path d="M1574.39,129.739c-69.076,0-125.073,55.997-125.073,125.074c0,69.076,55.997,125.074,125.073,125.074
				c69.077,0,125.074-55.998,125.074-125.074C1699.464,185.736,1643.467,129.739,1574.39,129.739z M1613.862,208.375
				c8.298,0,15.025,9.755,15.025,21.788c0,12.033-6.728,21.788-15.025,21.788s-15.025-9.754-15.025-21.788
				C1598.837,218.13,1605.564,208.375,1613.862,208.375z M1534.917,208.375c8.299,0,15.026,9.755,15.026,21.788
				c0,12.033-6.728,21.788-15.026,21.788c-8.298,0-15.025-9.754-15.025-21.788C1519.892,218.13,1526.619,208.375,1534.917,208.375z
				 M1632.252,297.359c-12.305,18.911-33.617,31.421-57.862,31.421c-24.244,0-45.558-12.509-57.862-31.42
				c-1.715-2.637,1.479-5.656,4.108-3.932c15.442,10.132,33.904,16.034,53.754,16.034s38.312-5.903,53.755-16.035
				C1630.773,291.703,1633.967,294.724,1632.252,297.359z"/>
			<g>
				<g>
					<path d="M856.447,143.032c-22.755,0-42.704,11.842-54.146,29.667c-11.44-17.825-31.391-29.667-54.145-29.667
						c-35.537,0-64.347,28.809-64.347,64.346c0,84.362,118.491,159.214,118.491,159.214s118.491-74.853,118.491-159.214
						C920.793,171.841,891.984,143.032,856.447,143.032z"/>
				</g>
			</g>
		</g>
	</g>
	<g>
		<path d="M2176.973,358.298h-23.971V69.825h23.971V197.68c9.988-19.178,31.166-34.761,61.131-34.761
			c45.15,0,67.525,31.564,67.525,71.119v124.26h-23.974V238.035c0-29.967-15.583-53.54-51.542-53.54
			c-31.963,0-53.141,27.969-53.141,59.132V358.298z"/>
		<path d="M2568.92,304.358c-10.787,32.363-39.555,59.134-83.506,59.134c-50.342,0-92.695-37.158-92.695-101.086
			c0-59.531,40.754-99.886,88.301-99.886c55.536,0,89.1,40.355,89.1,96.291c0,3.196-0.4,5.594-0.799,8.791h-151.829v1.597
			c0,43.951,30.767,73.117,67.923,73.117c34.361,0,53.939-20.376,62.33-45.548L2568.92,304.358z M2544.947,247.625
			c-1.197-35.16-23.572-63.528-63.527-63.528c-35.161,0-61.132,28.368-63.13,63.528H2544.947z"/>
		<path d="M2705.154,252.817l50.743-7.59c15.58-2.797,19.978-9.589,19.978-18.779c0-25.571-17.183-43.152-47.947-43.152
			c-30.366,0-50.343,17.182-53.14,44.749l-23.173-5.193c4.395-36.759,35.559-60.332,75.914-60.332
			c49.543,0,72.316,29.566,72.316,66.325v96.69c0,15.583,1.2,24.772,2.398,32.763h-23.174c-1.2-4.395-2.397-17.18-2.397-32.763
			c-9.19,17.579-31.565,37.558-66.325,37.558c-39.954,0-62.728-26.371-62.728-53.938
			C2647.62,276.791,2669.994,258.811,2705.154,252.817z M2775.875,280.387v-22.774c-2,1.996-16.781,6.393-25.173,7.59l-42.351,6.393
			c-22.375,3.196-35.962,15.583-35.962,36.358c0,17.581,13.985,34.761,40.755,34.761
			C2749.904,342.715,2775.875,318.743,2775.875,280.387z"/>
		<path d="M2936.487,167.715h49.544v21.973h-49.544v114.67c0,22.773,10.789,34.361,32.362,34.361c6.793,0,14.385-1.597,17.182-2.797
			V356.7c-3.195,1.598-11.986,3.596-23.574,3.596c-30.764,0-49.941-18.38-49.941-53.54V189.688h-40.355v-21.973h14.385
			c18.777,0,27.967-9.19,27.967-27.969v-32.363h21.976V167.715z"/>
		<path d="M3074.729,358.298V167.715h23.174v31.562c9.191-19.578,30.766-36.358,60.732-36.358c29.965,0,52.34,15.981,59.93,43.152
			c11.588-27.569,35.162-43.152,65.527-43.152c37.158,0,65.926,25.571,65.926,69.521v125.857h-23.974v-123.06
			c0-28.768-16.78-51.142-48.745-51.142c-31.963,0-53.14,26.37-53.14,57.535v116.667h-23.972v-123.06
			c0-28.768-16.381-51.142-48.744-51.142c-31.965,0-53.141,25.97-53.141,57.535v116.667H3074.729z"/>
		<path d="M3497.035,252.817l50.744-7.59c15.582-2.797,19.979-9.589,19.979-18.779c0-25.571-17.182-43.152-47.947-43.152
			c-30.365,0-50.342,17.182-53.139,44.749l-23.174-5.193c4.395-36.759,35.56-60.332,75.912-60.332
			c49.545,0,72.319,29.566,72.319,66.325v96.69c0,15.583,1.198,24.772,2.397,32.763h-23.175c-1.198-4.395-2.396-17.18-2.396-32.763
			c-9.19,17.579-31.564,37.558-66.325,37.558c-39.956,0-62.73-26.371-62.73-53.938
			C3439.501,276.791,3461.876,258.811,3497.035,252.817z M3567.758,280.387v-22.774c-1.998,1.996-16.783,6.393-25.172,7.59
			l-42.354,6.393c-22.375,3.196-35.959,15.583-35.959,36.358c0,17.581,13.986,34.761,40.754,34.761
			C3541.785,342.715,3567.758,318.743,3567.758,280.387z"/>
		<path d="M3694.002,434.212V167.715h23.576v37.955c9.588-19.578,30.766-42.352,69.122-42.352c53.937,0,86.3,43.152,86.3,99.487
			c0,56.736-33.561,100.287-87.102,100.287c-36.756,0-58.732-21.575-68.32-40.754v111.873H3694.002z M3782.703,184.495
			c-39.954,0-65.525,33.96-65.525,78.311c0,45.148,25.571,79.11,65.525,79.11c39.955,0,65.926-34.361,65.926-79.11
			C3848.629,218.056,3822.658,184.495,3782.703,184.495z"/>
	</g>
</g>
<g id="Layer_1">
	<g>
		<g>
			<g>
				<g>
					<path d="M271.016,301.679c-10.043,35.987-43.102,66.117-95.827,66.117c-57.329,0-108.38-41.01-108.38-110.89
						c0-66.955,49.795-109.638,103.777-109.638c64.859,0,104.196,39.335,104.196,106.708c0,8.787-0.837,18.412-1.256,19.666H128.739
						c1.255,23.434,22.597,40.174,47.286,40.174c23.434,0,35.569-10.882,41.846-27.2L271.016,301.679z M213.269,232.634
						c-1.256-15.482-11.718-35.151-41.846-35.151c-26.782,0-40.173,19.668-41.429,35.151H213.269z"/>
				</g>
			</g>
			<g>
				<g>
					<path d="M321.513,361.519V153.545h60.677v23.853c10.044-18.412,37.243-30.129,59.839-30.129
						c30.13,0,51.054,12.137,61.514,32.642c16.321-23.436,35.988-32.642,64.444-32.642c39.334,0,76.996,22.598,76.996,79.508
						v134.742h-61.514V241.004c0-19.669-10.043-35.151-33.059-35.151s-34.732,17.157-34.732,35.568v120.098h-62.769V241.004
						c0-19.669-10.044-35.151-33.477-35.151c-22.179,0-34.313,17.157-34.313,35.987v119.679H321.513z"/>
				</g>
			</g>
			<g>
				<g>
					<path d="M967.407,153.545h63.606v223.04c0,41.845-26.363,70.719-68.627,70.719c-22.179,0-32.222-4.603-35.151-5.857V388.72
						c2.93,1.254,9.207,2.51,18.832,2.51c14.646,0,21.34-8.368,21.34-21.341V153.545z M998.793,52.696
						c21.34,0,37.66,15.902,37.66,37.245c0,20.504-16.32,37.242-37.66,37.242c-20.087,0-36.826-16.737-36.826-37.242
						C961.967,68.598,978.706,52.696,998.793,52.696z"/>
				</g>
			</g>
			<g>
				<g>
					<path d="M1124.201,52.696c21.34,0,37.661,16.74,37.661,37.245c0,20.504-16.321,37.242-37.661,37.242
						c-20.087,0-36.826-16.737-36.826-37.242C1087.375,69.436,1104.114,52.696,1124.201,52.696z M1092.815,361.519V153.545h63.606
						v207.974H1092.815z"/>
				</g>
			</g>
			<g>
				<g>
					<path d="M1268.558,257.741c0,33.059,22.179,51.47,48.542,51.47c24.688,0,38.498-15.482,43.102-30.965l56.073,17.156
						c-8.788,36.406-43.938,72.394-99.175,72.394c-61.933,0-111.729-45.612-111.729-110.055
						c0-64.861,48.541-110.473,109.636-110.473c57.33,0,90.806,35.151,100.012,72.393l-56.909,17.157
						c-4.604-15.902-17.158-30.965-41.847-30.965C1289.899,205.853,1268.558,224.264,1268.558,257.741z"/>
				</g>
			</g>
			<g>
				<g>
					<path d="M1801.379,361.519h-63.607V153.545h61.514v23.853c10.88-19.667,37.242-29.291,58.165-29.291
						c52.308,0,75.741,37.242,75.741,82.854v130.559h-63.606V241.84c0-20.505-10.46-35.987-33.894-35.987
						c-21.343,0-34.312,15.063-34.312,36.406V361.519z"/>
				</g>
			</g>
			<path d="M1574.39,129.739c-69.076,0-125.073,55.997-125.073,125.074c0,69.076,55.997,125.074,125.073,125.074
				c69.077,0,125.074-55.998,125.074-125.074C1699.464,185.736,1643.467,129.739,1574.39,129.739z M1613.862,208.375
				c8.298,0,15.025,9.755,15.025,21.788c0,12.033-6.728,21.788-15.025,21.788s-15.025-9.754-15.025-21.788
				C1598.837,218.13,1605.564,208.375,1613.862,208.375z M1534.917,208.375c8.299,0,15.026,9.755,15.026,21.788
				c0,12.033-6.728,21.788-15.026,21.788c-8.298,0-15.025-9.754-15.025-21.788C1519.892,218.13,1526.619,208.375,1534.917,208.375z
				 M1632.252,297.359c-12.305,18.911-33.617,31.421-57.862,31.421c-24.244,0-45.558-12.509-57.862-31.42
				c-1.715-2.637,1.479-5.656,4.108-3.932c15.442,10.132,33.904,16.034,53.754,16.034s38.312-5.903,53.755-16.035
				C1630.773,291.703,1633.967,294.724,1632.252,297.359z"/>
			<g>
				<g>
					<path d="M856.447,143.032c-22.755,0-42.704,11.842-54.146,29.667c-11.44-17.825-31.391-29.667-54.145-29.667
						c-35.537,0-64.347,28.809-64.347,64.346c0,84.362,118.491,159.214,118.491,159.214s118.491-74.853,118.491-159.214
						C920.793,171.841,891.984,143.032,856.447,143.032z"/>
				</g>
			</g>
		</g>
	</g>
	<g>
		<path d="M2176.973,358.298h-23.971V69.825h23.971V197.68c9.988-19.178,31.166-34.761,61.131-34.761
			c45.15,0,67.525,31.564,67.525,71.119v124.26h-23.974V238.035c0-29.967-15.583-53.54-51.542-53.54
			c-31.963,0-53.141,27.969-53.141,59.132V358.298z"/>
		<path d="M2568.92,304.358c-10.787,32.363-39.555,59.134-83.506,59.134c-50.342,0-92.695-37.158-92.695-101.086
			c0-59.531,40.754-99.886,88.301-99.886c55.536,0,89.1,40.355,89.1,96.291c0,3.196-0.4,5.594-0.799,8.791h-151.829v1.597
			c0,43.951,30.767,73.117,67.923,73.117c34.361,0,53.939-20.376,62.33-45.548L2568.92,304.358z M2544.947,247.625
			c-1.197-35.16-23.572-63.528-63.527-63.528c-35.161,0-61.132,28.368-63.13,63.528H2544.947z"/>
		<path d="M2705.154,252.817l50.743-7.59c15.58-2.797,19.978-9.589,19.978-18.779c0-25.571-17.183-43.152-47.947-43.152
			c-30.366,0-50.343,17.182-53.14,44.749l-23.173-5.193c4.395-36.759,35.559-60.332,75.914-60.332
			c49.543,0,72.316,29.566,72.316,66.325v96.69c0,15.583,1.2,24.772,2.398,32.763h-23.174c-1.2-4.395-2.397-17.18-2.397-32.763
			c-9.19,17.579-31.565,37.558-66.325,37.558c-39.954,0-62.728-26.371-62.728-53.938
			C2647.62,276.791,2669.994,258.811,2705.154,252.817z M2775.875,280.387v-22.774c-2,1.996-16.781,6.393-25.173,7.59l-42.351,6.393
			c-22.375,3.196-35.962,15.583-35.962,36.358c0,17.581,13.985,34.761,40.755,34.761
			C2749.904,342.715,2775.875,318.743,2775.875,280.387z"/>
		<path d="M2936.487,167.715h49.544v21.973h-49.544v114.67c0,22.773,10.789,34.361,32.362,34.361c6.793,0,14.385-1.597,17.182-2.797
			V356.7c-3.195,1.598-11.986,3.596-23.574,3.596c-30.764,0-49.941-18.38-49.941-53.54V189.688h-40.355v-21.973h14.385
			c18.777,0,27.967-9.19,27.967-27.969v-32.363h21.976V167.715z"/>
		<path d="M3074.729,358.298V167.715h23.174v31.562c9.191-19.578,30.766-36.358,60.732-36.358c29.965,0,52.34,15.981,59.93,43.152
			c11.588-27.569,35.162-43.152,65.527-43.152c37.158,0,65.926,25.571,65.926,69.521v125.857h-23.974v-123.06
			c0-28.768-16.78-51.142-48.745-51.142c-31.963,0-53.14,26.37-53.14,57.535v116.667h-23.972v-123.06
			c0-28.768-16.381-51.142-48.744-51.142c-31.965,0-53.141,25.97-53.141,57.535v116.667H3074.729z"/>
		<path d="M3497.035,252.817l50.744-7.59c15.582-2.797,19.979-9.589,19.979-18.779c0-25.571-17.182-43.152-47.947-43.152
			c-30.365,0-50.342,17.182-53.139,44.749l-23.174-5.193c4.395-36.759,35.56-60.332,75.912-60.332
			c49.545,0,72.319,29.566,72.319,66.325v96.69c0,15.583,1.198,24.772,2.397,32.763h-23.175c-1.198-4.395-2.396-17.18-2.396-32.763
			c-9.19,17.579-31.564,37.558-66.325,37.558c-39.956,0-62.73-26.371-62.73-53.938
			C3439.501,276.791,3461.876,258.811,3497.035,252.817z M3567.758,280.387v-22.774c-1.998,1.996-16.783,6.393-25.172,7.59
			l-42.354,6.393c-22.375,3.196-35.959,15.583-35.959,36.358c0,17.581,13.986,34.761,40.754,34.761
			C3541.785,342.715,3567.758,318.743,3567.758,280.387z"/>
		<path d="M3694.002,434.212V167.715h23.576v37.955c9.588-19.578,30.766-42.352,69.122-42.352c53.937,0,86.3,43.152,86.3,99.487
			c0,56.736-33.561,100.287-87.102,100.287c-36.756,0-58.732-21.575-68.32-40.754v111.873H3694.002z M3782.703,184.495
			c-39.954,0-65.525,33.96-65.525,78.311c0,45.148,25.571,79.11,65.525,79.11c39.955,0,65.926-34.361,65.926-79.11
			C3848.629,218.056,3822.658,184.495,3782.703,184.495z"/>
	</g>
</g>
</svg>
