<?xml version="1.0" encoding="utf-8"?>
<!-- Generator: Adobe Illustrator 16.0.4, SVG Export Plug-In . SVG Version: 6.00 Build 0)  -->
<!DOCTYPE svg PUBLIC "-//W3C//DTD SVG 1.1//EN" "http://www.w3.org/Graphics/SVG/1.1/DTD/svg11.dtd">
<svg version="1.1" xmlns="http://www.w3.org/2000/svg" xmlns:xlink="http://www.w3.org/1999/xlink" x="0px" y="0px" width="1064px"
	 height="122px" viewBox="0 0 1064 122" enable-background="new 0 0 1064 122" xml:space="preserve">
<g id="Layer_1_copy_2" display="none">
	<g display="inline">
		<g>
			<g>
				<g>
					<path d="M-65.984,262.496c-10.043,35.987-43.102,66.117-95.827,66.117c-57.329,0-108.38-41.01-108.38-110.89
						c0-66.955,49.795-109.638,103.777-109.638c64.859,0,104.196,39.335,104.196,106.708c0,8.787-0.837,18.412-1.256,19.666
						h-144.787c1.255,23.434,22.597,40.174,47.286,40.174c23.434,0,35.569-10.882,41.846-27.2L-65.984,262.496z M-123.731,193.451
						c-1.256-15.482-11.718-35.151-41.846-35.151c-26.782,0-40.173,19.668-41.429,35.151H-123.731z"/>
				</g>
			</g>
			<g>
				<g>
					<path d="M-15.487,322.336V114.362h60.677v23.853c10.044-18.412,37.243-30.129,59.839-30.129
						c30.13,0,51.054,12.137,61.514,32.642c16.321-23.436,35.988-32.642,64.444-32.642c39.334,0,76.996,22.598,76.996,79.508
						v134.742h-61.514V201.821c0-19.669-10.043-35.151-33.059-35.151s-34.732,17.157-34.732,35.568v120.098h-62.769V201.821
						c0-19.669-10.044-35.151-33.477-35.151c-22.179,0-34.313,17.157-34.313,35.987v119.679H-15.487z"/>
				</g>
			</g>
			<g>
				<g>
					<path d="M630.407,114.362h63.606v223.04c0,41.845-26.363,70.719-68.627,70.719c-22.179,0-32.222-4.603-35.151-5.857v-52.727
						c2.93,1.254,9.207,2.51,18.832,2.51c14.646,0,21.34-8.368,21.34-21.341V114.362z M661.793,13.514
						c21.34,0,37.66,15.902,37.66,37.245c0,20.504-16.32,37.242-37.66,37.242c-20.087,0-36.826-16.737-36.826-37.242
						C624.967,29.416,641.706,13.514,661.793,13.514z"/>
				</g>
			</g>
			<g>
				<g>
					<path d="M787.201,13.514c21.34,0,37.661,16.74,37.661,37.245c0,20.504-16.321,37.242-37.661,37.242
						c-20.087,0-36.826-16.737-36.826-37.242C750.375,30.253,767.114,13.514,787.201,13.514z M755.815,322.336V114.362h63.606
						v207.974H755.815z"/>
				</g>
			</g>
			<g>
				<g>
					<path d="M931.558,218.559c0,33.059,22.179,51.47,48.542,51.47c24.688,0,38.498-15.482,43.102-30.965l56.073,17.156
						c-8.788,36.406-43.938,72.394-99.175,72.394c-61.933,0-111.729-45.612-111.729-110.055
						c0-64.861,48.541-110.473,109.636-110.473c57.33,0,90.806,35.151,100.012,72.393l-56.909,17.157
						c-4.604-15.902-17.158-30.965-41.847-30.965C952.899,166.67,931.558,185.082,931.558,218.559z"/>
				</g>
			</g>
			<g>
				<g>
					<path d="M1464.379,322.336h-63.607V114.362h61.514v23.853c10.88-19.667,37.242-29.291,58.165-29.291
						c52.308,0,75.741,37.242,75.741,82.854v130.559h-63.606V202.657c0-20.505-10.46-35.987-33.894-35.987
						c-21.343,0-34.312,15.063-34.312,36.406V322.336z"/>
				</g>
			</g>
			<path d="M1237.39,90.556c-69.076,0-125.073,55.997-125.073,125.074c0,69.076,55.997,125.074,125.073,125.074
				c69.077,0,125.074-55.998,125.074-125.074C1362.464,146.553,1306.467,90.556,1237.39,90.556z M1276.862,169.193
				c8.298,0,15.025,9.755,15.025,21.788c0,12.033-6.728,21.788-15.025,21.788s-15.025-9.754-15.025-21.788
				C1261.837,178.948,1268.564,169.193,1276.862,169.193z M1197.917,169.193c8.299,0,15.026,9.755,15.026,21.788
				c0,12.033-6.728,21.788-15.026,21.788c-8.298,0-15.025-9.754-15.025-21.788C1182.892,178.948,1189.619,169.193,1197.917,169.193z
				 M1295.252,258.177c-12.305,18.911-33.617,31.421-57.862,31.421c-24.244,0-45.558-12.509-57.862-31.42
				c-1.715-2.637,1.479-5.656,4.108-3.932c15.442,10.132,33.904,16.034,53.754,16.034s38.312-5.903,53.755-16.035
				C1293.773,252.521,1296.967,255.541,1295.252,258.177z"/>
			<g>
				<g>
					<path d="M519.447,103.85c-22.755,0-42.704,11.842-54.146,29.667c-11.44-17.825-31.391-29.667-54.145-29.667
						c-35.537,0-64.347,28.809-64.347,64.346c0,84.362,118.491,159.214,118.491,159.214s118.491-74.853,118.491-159.214
						C583.793,132.659,554.984,103.85,519.447,103.85z"/>
				</g>
			</g>
		</g>
	</g>
	<g display="inline">
		<path d="M1839.973,319.115h-23.971V30.643h23.971v127.855c9.988-19.178,31.166-34.761,61.131-34.761
			c45.15,0,67.525,31.564,67.525,71.119v124.26h-23.974V198.853c0-29.967-15.583-53.54-51.542-53.54
			c-31.963,0-53.141,27.969-53.141,59.132V319.115z"/>
		<path d="M2231.92,265.176c-10.787,32.363-39.555,59.134-83.506,59.134c-50.342,0-92.695-37.158-92.695-101.086
			c0-59.531,40.754-99.886,88.301-99.886c55.536,0,89.1,40.355,89.1,96.291c0,3.196-0.4,5.594-0.799,8.791h-151.829v1.597
			c0,43.951,30.767,73.117,67.923,73.117c34.361,0,53.939-20.376,62.33-45.548L2231.92,265.176z M2207.947,208.442
			c-1.197-35.16-23.572-63.528-63.527-63.528c-35.161,0-61.132,28.368-63.13,63.528H2207.947z"/>
		<path d="M2368.154,213.634l50.743-7.59c15.58-2.797,19.978-9.589,19.978-18.779c0-25.571-17.183-43.152-47.947-43.152
			c-30.366,0-50.343,17.182-53.14,44.749l-23.173-5.193c4.395-36.759,35.559-60.332,75.914-60.332
			c49.543,0,72.316,29.566,72.316,66.325v96.69c0,15.583,1.2,24.772,2.398,32.763h-23.174c-1.2-4.395-2.397-17.18-2.397-32.763
			c-9.19,17.579-31.565,37.558-66.325,37.558c-39.954,0-62.728-26.371-62.728-53.938
			C2310.62,237.608,2332.994,219.628,2368.154,213.634z M2438.875,241.204V218.43c-2,1.996-16.781,6.393-25.173,7.59l-42.351,6.393
			c-22.375,3.196-35.962,15.583-35.962,36.358c0,17.581,13.985,34.761,40.755,34.761
			C2412.904,303.532,2438.875,279.561,2438.875,241.204z"/>
		<path d="M2599.487,128.532h49.544v21.973h-49.544v114.67c0,22.773,10.789,34.361,32.362,34.361c6.793,0,14.385-1.597,17.182-2.797
			v20.777c-3.195,1.598-11.986,3.596-23.574,3.596c-30.764,0-49.941-18.38-49.941-53.54V150.505h-40.355v-21.973h14.385
			c18.777,0,27.967-9.19,27.967-27.969V68.2h21.976V128.532z"/>
		<path d="M2737.729,319.115V128.532h23.174v31.562c9.191-19.578,30.766-36.358,60.732-36.358c29.965,0,52.34,15.981,59.93,43.152
			c11.588-27.569,35.162-43.152,65.527-43.152c37.158,0,65.926,25.571,65.926,69.521v125.857h-23.974v-123.06
			c0-28.768-16.78-51.142-48.745-51.142c-31.963,0-53.14,26.37-53.14,57.535v116.667h-23.972v-123.06
			c0-28.768-16.381-51.142-48.744-51.142c-31.965,0-53.141,25.97-53.141,57.535v116.667H2737.729z"/>
		<path d="M3160.035,213.634l50.744-7.59c15.582-2.797,19.979-9.589,19.979-18.779c0-25.571-17.182-43.152-47.947-43.152
			c-30.365,0-50.342,17.182-53.139,44.749l-23.174-5.193c4.395-36.759,35.56-60.332,75.912-60.332
			c49.545,0,72.319,29.566,72.319,66.325v96.69c0,15.583,1.198,24.772,2.397,32.763h-23.175c-1.198-4.395-2.396-17.18-2.396-32.763
			c-9.19,17.579-31.564,37.558-66.325,37.558c-39.956,0-62.73-26.371-62.73-53.938
			C3102.501,237.608,3124.876,219.628,3160.035,213.634z M3230.758,241.204V218.43c-1.998,1.996-16.783,6.393-25.172,7.59
			l-42.354,6.393c-22.375,3.196-35.959,15.583-35.959,36.358c0,17.581,13.986,34.761,40.754,34.761
			C3204.785,303.532,3230.758,279.561,3230.758,241.204z"/>
		<path d="M3357.002,395.029V128.532h23.576v37.955c9.588-19.578,30.766-42.352,69.122-42.352c53.937,0,86.3,43.152,86.3,99.487
			c0,56.736-33.561,100.287-87.102,100.287c-36.756,0-58.732-21.575-68.32-40.754v111.873H3357.002z M3445.703,145.312
			c-39.954,0-65.525,33.96-65.525,78.311c0,45.148,25.571,79.11,65.525,79.11c39.955,0,65.926-34.361,65.926-79.11
			C3511.629,178.874,3485.658,145.312,3445.703,145.312z"/>
	</g>
</g>
<g id="Layer_1_copy" display="none">
	<g display="inline">
		<g>
			<g>
				<g>
					<path d="M-65.984,262.496c-10.043,35.987-43.102,66.117-95.827,66.117c-57.329,0-108.38-41.01-108.38-110.89
						c0-66.955,49.795-109.638,103.777-109.638c64.859,0,104.196,39.335,104.196,106.708c0,8.787-0.837,18.412-1.256,19.666
						h-144.787c1.255,23.434,22.597,40.174,47.286,40.174c23.434,0,35.569-10.882,41.846-27.2L-65.984,262.496z M-123.731,193.451
						c-1.256-15.482-11.718-35.151-41.846-35.151c-26.782,0-40.173,19.668-41.429,35.151H-123.731z"/>
				</g>
			</g>
			<g>
				<g>
					<path d="M-15.487,322.336V114.362h60.677v23.853c10.044-18.412,37.243-30.129,59.839-30.129
						c30.13,0,51.054,12.137,61.514,32.642c16.321-23.436,35.988-32.642,64.444-32.642c39.334,0,76.996,22.598,76.996,79.508
						v134.742h-61.514V201.821c0-19.669-10.043-35.151-33.059-35.151s-34.732,17.157-34.732,35.568v120.098h-62.769V201.821
						c0-19.669-10.044-35.151-33.477-35.151c-22.179,0-34.313,17.157-34.313,35.987v119.679H-15.487z"/>
				</g>
			</g>
			<g>
				<g>
					<path d="M630.407,114.362h63.606v223.04c0,41.845-26.363,70.719-68.627,70.719c-22.179,0-32.222-4.603-35.151-5.857v-52.727
						c2.93,1.254,9.207,2.51,18.832,2.51c14.646,0,21.34-8.368,21.34-21.341V114.362z M661.793,13.514
						c21.34,0,37.66,15.902,37.66,37.245c0,20.504-16.32,37.242-37.66,37.242c-20.087,0-36.826-16.737-36.826-37.242
						C624.967,29.416,641.706,13.514,661.793,13.514z"/>
				</g>
			</g>
			<g>
				<g>
					<path d="M787.201,13.514c21.34,0,37.661,16.74,37.661,37.245c0,20.504-16.321,37.242-37.661,37.242
						c-20.087,0-36.826-16.737-36.826-37.242C750.375,30.253,767.114,13.514,787.201,13.514z M755.815,322.336V114.362h63.606
						v207.974H755.815z"/>
				</g>
			</g>
			<g>
				<g>
					<path d="M931.558,218.559c0,33.059,22.179,51.47,48.542,51.47c24.688,0,38.498-15.482,43.102-30.965l56.073,17.156
						c-8.788,36.406-43.938,72.394-99.175,72.394c-61.933,0-111.729-45.612-111.729-110.055
						c0-64.861,48.541-110.473,109.636-110.473c57.33,0,90.806,35.151,100.012,72.393l-56.909,17.157
						c-4.604-15.902-17.158-30.965-41.847-30.965C952.899,166.67,931.558,185.082,931.558,218.559z"/>
				</g>
			</g>
			<g>
				<g>
					<path d="M1464.379,322.336h-63.607V114.362h61.514v23.853c10.88-19.667,37.242-29.291,58.165-29.291
						c52.308,0,75.741,37.242,75.741,82.854v130.559h-63.606V202.657c0-20.505-10.46-35.987-33.894-35.987
						c-21.343,0-34.312,15.063-34.312,36.406V322.336z"/>
				</g>
			</g>
			<path d="M1237.39,90.556c-69.076,0-125.073,55.997-125.073,125.074c0,69.076,55.997,125.074,125.073,125.074
				c69.077,0,125.074-55.998,125.074-125.074C1362.464,146.553,1306.467,90.556,1237.39,90.556z M1276.862,169.193
				c8.298,0,15.025,9.755,15.025,21.788c0,12.033-6.728,21.788-15.025,21.788s-15.025-9.754-15.025-21.788
				C1261.837,178.948,1268.564,169.193,1276.862,169.193z M1197.917,169.193c8.299,0,15.026,9.755,15.026,21.788
				c0,12.033-6.728,21.788-15.026,21.788c-8.298,0-15.025-9.754-15.025-21.788C1182.892,178.948,1189.619,169.193,1197.917,169.193z
				 M1295.252,258.177c-12.305,18.911-33.617,31.421-57.862,31.421c-24.244,0-45.558-12.509-57.862-31.42
				c-1.715-2.637,1.479-5.656,4.108-3.932c15.442,10.132,33.904,16.034,53.754,16.034s38.312-5.903,53.755-16.035
				C1293.773,252.521,1296.967,255.541,1295.252,258.177z"/>
			<g>
				<g>
					<path d="M519.447,103.85c-22.755,0-42.704,11.842-54.146,29.667c-11.44-17.825-31.391-29.667-54.145-29.667
						c-35.537,0-64.347,28.809-64.347,64.346c0,84.362,118.491,159.214,118.491,159.214s118.491-74.853,118.491-159.214
						C583.793,132.659,554.984,103.85,519.447,103.85z"/>
				</g>
			</g>
		</g>
	</g>
	<g display="inline">
		<path d="M1839.973,319.115h-23.971V30.643h23.971v127.855c9.988-19.178,31.166-34.761,61.131-34.761
			c45.15,0,67.525,31.564,67.525,71.119v124.26h-23.974V198.853c0-29.967-15.583-53.54-51.542-53.54
			c-31.963,0-53.141,27.969-53.141,59.132V319.115z"/>
		<path d="M2231.92,265.176c-10.787,32.363-39.555,59.134-83.506,59.134c-50.342,0-92.695-37.158-92.695-101.086
			c0-59.531,40.754-99.886,88.301-99.886c55.536,0,89.1,40.355,89.1,96.291c0,3.196-0.4,5.594-0.799,8.791h-151.829v1.597
			c0,43.951,30.767,73.117,67.923,73.117c34.361,0,53.939-20.376,62.33-45.548L2231.92,265.176z M2207.947,208.442
			c-1.197-35.16-23.572-63.528-63.527-63.528c-35.161,0-61.132,28.368-63.13,63.528H2207.947z"/>
		<path d="M2368.154,213.634l50.743-7.59c15.58-2.797,19.978-9.589,19.978-18.779c0-25.571-17.183-43.152-47.947-43.152
			c-30.366,0-50.343,17.182-53.14,44.749l-23.173-5.193c4.395-36.759,35.559-60.332,75.914-60.332
			c49.543,0,72.316,29.566,72.316,66.325v96.69c0,15.583,1.2,24.772,2.398,32.763h-23.174c-1.2-4.395-2.397-17.18-2.397-32.763
			c-9.19,17.579-31.565,37.558-66.325,37.558c-39.954,0-62.728-26.371-62.728-53.938
			C2310.62,237.608,2332.994,219.628,2368.154,213.634z M2438.875,241.204V218.43c-2,1.996-16.781,6.393-25.173,7.59l-42.351,6.393
			c-22.375,3.196-35.962,15.583-35.962,36.358c0,17.581,13.985,34.761,40.755,34.761
			C2412.904,303.532,2438.875,279.561,2438.875,241.204z"/>
		<path d="M2599.487,128.532h49.544v21.973h-49.544v114.67c0,22.773,10.789,34.361,32.362,34.361c6.793,0,14.385-1.597,17.182-2.797
			v20.777c-3.195,1.598-11.986,3.596-23.574,3.596c-30.764,0-49.941-18.38-49.941-53.54V150.505h-40.355v-21.973h14.385
			c18.777,0,27.967-9.19,27.967-27.969V68.2h21.976V128.532z"/>
		<path d="M2737.729,319.115V128.532h23.174v31.562c9.191-19.578,30.766-36.358,60.732-36.358c29.965,0,52.34,15.981,59.93,43.152
			c11.588-27.569,35.162-43.152,65.527-43.152c37.158,0,65.926,25.571,65.926,69.521v125.857h-23.974v-123.06
			c0-28.768-16.78-51.142-48.745-51.142c-31.963,0-53.14,26.37-53.14,57.535v116.667h-23.972v-123.06
			c0-28.768-16.381-51.142-48.744-51.142c-31.965,0-53.141,25.97-53.141,57.535v116.667H2737.729z"/>
		<path d="M3160.035,213.634l50.744-7.59c15.582-2.797,19.979-9.589,19.979-18.779c0-25.571-17.182-43.152-47.947-43.152
			c-30.365,0-50.342,17.182-53.139,44.749l-23.174-5.193c4.395-36.759,35.56-60.332,75.912-60.332
			c49.545,0,72.319,29.566,72.319,66.325v96.69c0,15.583,1.198,24.772,2.397,32.763h-23.175c-1.198-4.395-2.396-17.18-2.396-32.763
			c-9.19,17.579-31.564,37.558-66.325,37.558c-39.956,0-62.73-26.371-62.73-53.938
			C3102.501,237.608,3124.876,219.628,3160.035,213.634z M3230.758,241.204V218.43c-1.998,1.996-16.783,6.393-25.172,7.59
			l-42.354,6.393c-22.375,3.196-35.959,15.583-35.959,36.358c0,17.581,13.986,34.761,40.754,34.761
			C3204.785,303.532,3230.758,279.561,3230.758,241.204z"/>
		<path d="M3357.002,395.029V128.532h23.576v37.955c9.588-19.578,30.766-42.352,69.122-42.352c53.937,0,86.3,43.152,86.3,99.487
			c0,56.736-33.561,100.287-87.102,100.287c-36.756,0-58.732-21.575-68.32-40.754v111.873H3357.002z M3445.703,145.312
			c-39.954,0-65.525,33.96-65.525,78.311c0,45.148,25.571,79.11,65.525,79.11c39.955,0,65.926-34.361,65.926-79.11
			C3511.629,178.874,3485.658,145.312,3445.703,145.312z"/>
	</g>
</g>
<g id="Layer_1">
	<g>
		<g>
			<g>
				<g>
					<path d="M145.309,73.223c-2.408,8.63-10.336,15.856-22.979,15.856c-13.749,0-25.991-9.835-25.991-26.593
						c0-16.056,11.941-26.292,24.887-26.292c15.555,0,24.988,9.433,24.988,25.59c0,2.107-0.201,4.416-0.301,4.716h-34.723
						c0.301,5.62,5.419,9.634,11.34,9.634c5.619,0,8.53-2.609,10.035-6.522L145.309,73.223z M131.461,56.665
						c-0.301-3.713-2.811-8.43-10.035-8.43c-6.423,0-9.634,4.717-9.936,8.43H131.461z"/>
				</g>
			</g>
			<g>
				<g>
					<path d="M157.42,87.573V37.698h14.551v5.72c2.408-4.415,8.931-7.225,14.35-7.225c7.227,0,12.244,2.911,14.752,7.828
						c3.914-5.62,8.63-7.828,15.454-7.828c9.433,0,18.465,5.419,18.465,19.067v32.313H220.24V58.672c0-4.717-2.409-8.43-7.928-8.43
						c-5.521,0-8.33,4.114-8.33,8.529v28.801H188.93V58.672c0-4.717-2.408-8.43-8.028-8.43c-5.318,0-8.228,4.114-8.228,8.63v28.701
						H157.42z"/>
				</g>
			</g>
			<g>
				<g>
					<path d="M312.312,37.698h15.254v53.488c0,10.035-6.322,16.959-16.457,16.959c-5.319,0-7.728-1.104-8.43-1.405V94.096
						c0.702,0.301,2.207,0.602,4.516,0.602c3.512,0,5.117-2.007,5.117-5.118V37.698z M319.84,13.514
						c5.117,0,9.031,3.813,9.031,8.932c0,4.917-3.914,8.931-9.031,8.931c-4.817,0-8.832-4.014-8.832-8.931
						C311.008,17.327,315.022,13.514,319.84,13.514z"/>
				</g>
			</g>
			<g>
				<g>
					<path d="M349.914,13.514c5.118,0,9.031,4.014,9.031,8.932s-3.913,8.931-9.031,8.931c-4.816,0-8.832-4.014-8.832-8.931
						S345.098,13.514,349.914,13.514z M342.387,87.573V37.698h15.254v49.875H342.387z"/>
				</g>
			</g>
			<g>
				<g>
					<path d="M384.532,62.686c0,7.928,5.319,12.343,11.642,12.343c5.921,0,9.232-3.713,10.336-7.426l13.447,4.115
						c-2.107,8.73-10.537,17.361-23.783,17.361c-14.853,0-26.794-10.938-26.794-26.393c0-15.555,11.64-26.493,26.292-26.493
						c13.748,0,21.776,8.43,23.984,17.36l-13.648,4.115c-1.104-3.813-4.113-7.426-10.035-7.426
						C389.65,50.243,384.532,54.658,384.532,62.686z"/>
				</g>
			</g>
			<g>
				<g>
					<path d="M512.31,87.573h-15.253V37.698h14.752v5.72c2.608-4.716,8.93-7.024,13.947-7.024c12.545,0,18.164,8.931,18.164,19.87
						v31.31h-15.253V58.873c0-4.917-2.509-8.63-8.128-8.63c-5.119,0-8.229,3.612-8.229,8.73V87.573z"/>
				</g>
			</g>
			<path d="M457.875,31.99c-16.565,0-29.994,13.428-29.994,29.994c0,16.565,13.429,29.995,29.994,29.995
				s29.994-13.429,29.994-29.995C487.869,45.418,474.44,31.99,457.875,31.99z M467.341,50.847c1.991,0,3.603,2.34,3.603,5.225
				c0,2.886-1.611,5.225-3.603,5.225c-1.989,0-3.603-2.339-3.603-5.225C463.738,53.187,465.352,50.847,467.341,50.847z
				 M448.409,50.847c1.989,0,3.604,2.34,3.604,5.225c0,2.886-1.614,5.225-3.604,5.225c-1.99,0-3.604-2.339-3.604-5.225
				C444.806,53.187,446.419,50.847,448.409,50.847z M471.751,72.187c-2.95,4.535-8.062,7.535-13.876,7.535s-10.926-3-13.877-7.535
				c-0.41-0.633,0.355-1.357,0.985-0.943c3.704,2.43,8.132,3.845,12.892,3.845c4.761,0,9.188-1.416,12.891-3.846
				C471.396,70.831,472.162,71.555,471.751,72.187z"/>
			<g>
				<g>
					<path d="M285.703,35.177c-5.457,0-10.241,2.84-12.984,7.115c-2.744-4.275-7.528-7.115-12.984-7.115
						c-8.522,0-15.432,6.909-15.432,15.431c0,20.231,28.416,38.182,28.416,38.182s28.415-17.951,28.415-38.182
						C301.134,42.086,294.225,35.177,285.703,35.177z"/>
				</g>
			</g>
		</g>
	</g>
	<g>
		<path d="M602.383,86.801h-5.749V17.622h5.749v30.661c2.394-4.599,7.474-8.336,14.659-8.336c10.827,0,16.193,7.569,16.193,17.055
			v29.799h-5.749V57.96c0-7.187-3.737-12.84-12.36-12.84c-7.665,0-12.743,6.708-12.743,14.181V86.801z"/>
		<path d="M696.375,73.865c-2.586,7.762-9.485,14.181-20.024,14.181c-12.073,0-22.229-8.911-22.229-24.242
			c0-14.276,9.772-23.954,21.175-23.954c13.319,0,21.367,9.678,21.367,23.092c0,0.767-0.095,1.341-0.19,2.108h-36.411v0.383
			c0,10.54,7.378,17.534,16.289,17.534c8.239,0,12.935-4.886,14.946-10.923L696.375,73.865z M690.627,60.26
			c-0.287-8.432-5.652-15.235-15.234-15.235c-8.432,0-14.66,6.803-15.14,15.235H690.627z"/>
		<path d="M729.047,61.505l12.168-1.82c3.736-0.671,4.791-2.3,4.791-4.504c0-6.132-4.12-10.348-11.498-10.348
			c-7.282,0-12.073,4.121-12.743,10.731l-5.558-1.246c1.055-8.815,8.527-14.468,18.205-14.468c11.881,0,17.343,7.091,17.343,15.906
			v23.188c0,3.737,0.288,5.941,0.575,7.857h-5.557c-0.289-1.054-0.576-4.12-0.576-7.857c-2.204,4.216-7.569,9.007-15.904,9.007
			c-9.582,0-15.043-6.324-15.043-12.935C715.25,67.254,720.615,62.942,729.047,61.505z M746.006,68.117v-5.461
			c-0.479,0.479-4.023,1.533-6.036,1.82l-10.156,1.533c-5.366,0.766-8.624,3.737-8.624,8.719c0,4.216,3.354,8.336,9.773,8.336
			C739.778,83.064,746.006,77.315,746.006,68.117z"/>
		<path d="M784.522,41.096h11.882v5.27h-11.882v27.499c0,5.461,2.588,8.24,7.762,8.24c1.629,0,3.449-0.383,4.12-0.67v4.983
			c-0.767,0.383-2.874,0.862-5.654,0.862c-7.377,0-11.976-4.408-11.976-12.84V46.366h-9.678v-5.27h3.45
			c4.502,0,6.707-2.203,6.707-6.707v-7.761h5.269V41.096z"/>
		<path d="M817.675,86.801V41.096h5.558v7.569c2.204-4.695,7.378-8.719,14.564-8.719c7.186,0,12.553,3.832,14.372,10.348
			c2.778-6.611,8.433-10.348,15.714-10.348c8.912,0,15.811,6.132,15.811,16.672v30.182h-5.749V57.289
			c0-6.898-4.024-12.264-11.69-12.264s-12.743,6.324-12.743,13.798v27.978h-5.749V57.289c0-6.898-3.928-12.264-11.689-12.264
			c-7.666,0-12.744,6.229-12.744,13.798v27.978H817.675z"/>
		<path d="M918.949,61.505l12.17-1.82c3.735-0.671,4.791-2.3,4.791-4.504c0-6.132-4.121-10.348-11.498-10.348
			c-7.283,0-12.073,4.121-12.744,10.731l-5.558-1.246c1.055-8.815,8.527-14.468,18.205-14.468c11.882,0,17.343,7.091,17.343,15.906
			v23.188c0,3.737,0.287,5.941,0.575,7.857h-5.558c-0.287-1.054-0.575-4.12-0.575-7.857c-2.203,4.216-7.569,9.007-15.904,9.007
			c-9.582,0-15.044-6.324-15.044-12.935C905.152,67.254,910.518,62.942,918.949,61.505z M935.91,68.117v-5.461
			c-0.479,0.479-4.025,1.533-6.037,1.82l-10.157,1.533c-5.365,0.766-8.622,3.737-8.622,8.719c0,4.216,3.354,8.336,9.771,8.336
			C929.682,83.064,935.91,77.315,935.91,68.117z"/>
		<path d="M966.186,105.006v-63.91h5.652v9.103c2.3-4.695,7.379-10.157,16.578-10.157c12.933,0,20.694,10.349,20.694,23.858
			c0,13.606-8.048,24.05-20.888,24.05c-8.814,0-14.085-5.174-16.385-9.773v26.829H966.186z M987.457,45.121
			c-9.582,0-15.714,8.144-15.714,18.78c0,10.827,6.132,18.972,15.714,18.972c9.581,0,15.81-8.24,15.81-18.972
			S997.038,45.121,987.457,45.121z"/>
	</g>
</g>
</svg>
