<?xml version="1.0" encoding="utf-8"?>
<!-- Generator: Adobe Illustrator 16.0.4, SVG Export Plug-In . SVG Version: 6.00 Build 0)  -->
<!DOCTYPE svg PUBLIC "-//W3C//DTD SVG 1.1//EN" "http://www.w3.org/Graphics/SVG/1.1/DTD/svg11.dtd">
<svg version="1.1" xmlns="http://www.w3.org/2000/svg" xmlns:xlink="http://www.w3.org/1999/xlink" x="0px" y="0px" width="744px"
	 height="106px" viewBox="0 0 744 106" enable-background="new 0 0 744 106" xml:space="preserve">
<g id="Layer_1_copy_2" display="none">
	<g display="inline">
		<g>
			<g>
				<g>
					<path d="M-141.984,254.496c-10.043,35.987-43.102,66.117-95.827,66.117c-57.329,0-108.38-41.01-108.38-110.89
						c0-66.955,49.795-109.638,103.777-109.638c64.859,0,104.196,39.335,104.196,106.708c0,8.787-0.837,18.412-1.256,19.666
						h-144.787c1.255,23.434,22.597,40.174,47.286,40.174c23.434,0,35.569-10.882,41.846-27.2L-141.984,254.496z M-199.731,185.451
						c-1.256-15.482-11.718-35.151-41.846-35.151c-26.782,0-40.173,19.668-41.429,35.151H-199.731z"/>
				</g>
			</g>
			<g>
				<g>
					<path d="M-91.487,314.336V106.362h60.677v23.853c10.044-18.412,37.243-30.129,59.839-30.129
						c30.13,0,51.054,12.137,61.514,32.642c16.321-23.436,35.988-32.642,64.444-32.642c39.334,0,76.996,22.598,76.996,79.508
						v134.742h-61.514V193.821c0-19.669-10.043-35.151-33.059-35.151s-34.732,17.157-34.732,35.568v120.098H39.909V193.821
						c0-19.669-10.044-35.151-33.477-35.151c-22.179,0-34.313,17.157-34.313,35.987v119.679H-91.487z"/>
				</g>
			</g>
			<g>
				<g>
					<path d="M554.407,106.362h63.606v223.04c0,41.845-26.363,70.719-68.627,70.719c-22.179,0-32.222-4.603-35.151-5.857v-52.727
						c2.93,1.254,9.207,2.51,18.832,2.51c14.646,0,21.34-8.368,21.34-21.341V106.362z M585.793,5.514
						c21.34,0,37.66,15.902,37.66,37.245c0,20.504-16.32,37.242-37.66,37.242c-20.087,0-36.826-16.737-36.826-37.242
						C548.967,21.416,565.706,5.514,585.793,5.514z"/>
				</g>
			</g>
			<g>
				<g>
					<path d="M711.201,5.514c21.34,0,37.661,16.74,37.661,37.245c0,20.504-16.321,37.242-37.661,37.242
						c-20.087,0-36.826-16.737-36.826-37.242C674.375,22.253,691.114,5.514,711.201,5.514z M679.815,314.336V106.362h63.606v207.974
						H679.815z"/>
				</g>
			</g>
			<g>
				<g>
					<path d="M855.558,210.559c0,33.059,22.179,51.47,48.542,51.47c24.688,0,38.498-15.482,43.102-30.965l56.073,17.156
						c-8.788,36.406-43.938,72.394-99.175,72.394c-61.933,0-111.729-45.612-111.729-110.055
						c0-64.861,48.541-110.473,109.636-110.473c57.33,0,90.806,35.151,100.012,72.393l-56.909,17.157
						c-4.604-15.902-17.158-30.965-41.847-30.965C876.899,158.67,855.558,177.082,855.558,210.559z"/>
				</g>
			</g>
			<g>
				<g>
					<path d="M1388.379,314.336h-63.607V106.362h61.514v23.853c10.88-19.667,37.242-29.291,58.165-29.291
						c52.308,0,75.741,37.242,75.741,82.854v130.559h-63.606V194.657c0-20.505-10.46-35.987-33.894-35.987
						c-21.343,0-34.312,15.063-34.312,36.406V314.336z"/>
				</g>
			</g>
			<path d="M1161.39,82.556c-69.076,0-125.073,55.997-125.073,125.074c0,69.076,55.997,125.074,125.073,125.074
				c69.077,0,125.074-55.998,125.074-125.074C1286.464,138.553,1230.467,82.556,1161.39,82.556z M1200.862,161.193
				c8.298,0,15.025,9.755,15.025,21.788c0,12.033-6.728,21.788-15.025,21.788s-15.025-9.754-15.025-21.788
				C1185.837,170.948,1192.564,161.193,1200.862,161.193z M1121.917,161.193c8.299,0,15.026,9.755,15.026,21.788
				c0,12.033-6.728,21.788-15.026,21.788c-8.298,0-15.025-9.754-15.025-21.788C1106.892,170.948,1113.619,161.193,1121.917,161.193z
				 M1219.252,250.177c-12.305,18.911-33.617,31.421-57.862,31.421c-24.244,0-45.558-12.509-57.862-31.42
				c-1.715-2.637,1.479-5.656,4.108-3.932c15.442,10.132,33.904,16.034,53.754,16.034s38.312-5.903,53.755-16.035
				C1217.773,244.521,1220.967,247.541,1219.252,250.177z"/>
			<g>
				<g>
					<path d="M443.447,95.85c-22.755,0-42.704,11.842-54.146,29.667c-11.44-17.825-31.391-29.667-54.145-29.667
						c-35.537,0-64.347,28.809-64.347,64.346c0,84.362,118.491,159.214,118.491,159.214s118.491-74.853,118.491-159.214
						C507.793,124.659,478.984,95.85,443.447,95.85z"/>
				</g>
			</g>
		</g>
	</g>
	<g display="inline">
		<path d="M1763.973,311.115h-23.971V22.643h23.971v127.855c9.988-19.178,31.166-34.761,61.131-34.761
			c45.15,0,67.525,31.564,67.525,71.119v124.26h-23.974V190.853c0-29.967-15.583-53.54-51.542-53.54
			c-31.963,0-53.141,27.969-53.141,59.132V311.115z"/>
		<path d="M2155.92,257.176c-10.787,32.363-39.555,59.134-83.506,59.134c-50.342,0-92.695-37.158-92.695-101.086
			c0-59.531,40.754-99.886,88.301-99.886c55.536,0,89.1,40.355,89.1,96.291c0,3.196-0.4,5.594-0.799,8.791h-151.829v1.597
			c0,43.951,30.767,73.117,67.923,73.117c34.361,0,53.939-20.376,62.33-45.548L2155.92,257.176z M2131.947,200.442
			c-1.197-35.16-23.572-63.528-63.527-63.528c-35.161,0-61.132,28.368-63.13,63.528H2131.947z"/>
		<path d="M2292.154,205.634l50.743-7.59c15.58-2.797,19.978-9.589,19.978-18.779c0-25.571-17.183-43.152-47.947-43.152
			c-30.366,0-50.343,17.182-53.14,44.749l-23.173-5.193c4.395-36.759,35.559-60.332,75.914-60.332
			c49.543,0,72.316,29.566,72.316,66.325v96.69c0,15.583,1.2,24.772,2.398,32.763h-23.174c-1.2-4.395-2.397-17.18-2.397-32.763
			c-9.19,17.579-31.565,37.558-66.325,37.558c-39.954,0-62.728-26.371-62.728-53.938
			C2234.62,229.608,2256.994,211.628,2292.154,205.634z M2362.875,233.204V210.43c-2,1.996-16.781,6.393-25.173,7.59l-42.351,6.393
			c-22.375,3.196-35.962,15.583-35.962,36.358c0,17.581,13.985,34.761,40.755,34.761
			C2336.904,295.532,2362.875,271.561,2362.875,233.204z"/>
		<path d="M2523.487,120.532h49.544v21.973h-49.544v114.67c0,22.773,10.789,34.361,32.362,34.361c6.793,0,14.385-1.597,17.182-2.797
			v20.777c-3.195,1.598-11.986,3.596-23.574,3.596c-30.764,0-49.941-18.38-49.941-53.54V142.505h-40.355v-21.973h14.385
			c18.777,0,27.967-9.19,27.967-27.969V60.2h21.976V120.532z"/>
		<path d="M2661.729,311.115V120.532h23.174v31.562c9.191-19.578,30.766-36.358,60.732-36.358c29.965,0,52.34,15.981,59.93,43.152
			c11.588-27.569,35.162-43.152,65.527-43.152c37.158,0,65.926,25.571,65.926,69.521v125.857h-23.974v-123.06
			c0-28.768-16.78-51.142-48.745-51.142c-31.963,0-53.14,26.37-53.14,57.535v116.667h-23.972v-123.06
			c0-28.768-16.381-51.142-48.744-51.142c-31.965,0-53.141,25.97-53.141,57.535v116.667H2661.729z"/>
		<path d="M3084.035,205.634l50.744-7.59c15.582-2.797,19.979-9.589,19.979-18.779c0-25.571-17.182-43.152-47.947-43.152
			c-30.365,0-50.342,17.182-53.139,44.749l-23.174-5.193c4.395-36.759,35.56-60.332,75.912-60.332
			c49.545,0,72.319,29.566,72.319,66.325v96.69c0,15.583,1.198,24.772,2.397,32.763h-23.175c-1.198-4.395-2.396-17.18-2.396-32.763
			c-9.19,17.579-31.564,37.558-66.325,37.558c-39.956,0-62.73-26.371-62.73-53.938
			C3026.501,229.608,3048.876,211.628,3084.035,205.634z M3154.758,233.204V210.43c-1.998,1.996-16.783,6.393-25.172,7.59
			l-42.354,6.393c-22.375,3.196-35.959,15.583-35.959,36.358c0,17.581,13.986,34.761,40.754,34.761
			C3128.785,295.532,3154.758,271.561,3154.758,233.204z"/>
		<path d="M3281.002,387.029V120.532h23.576v37.955c9.588-19.578,30.766-42.352,69.122-42.352c53.937,0,86.3,43.152,86.3,99.487
			c0,56.736-33.561,100.287-87.102,100.287c-36.756,0-58.732-21.575-68.32-40.754v111.873H3281.002z M3369.703,137.312
			c-39.954,0-65.525,33.96-65.525,78.311c0,45.148,25.571,79.11,65.525,79.11c39.955,0,65.926-34.361,65.926-79.11
			C3435.629,170.874,3409.658,137.312,3369.703,137.312z"/>
	</g>
</g>
<g id="Layer_1_copy" display="none">
	<g display="inline">
		<g>
			<g>
				<g>
					<path d="M-141.984,254.496c-10.043,35.987-43.102,66.117-95.827,66.117c-57.329,0-108.38-41.01-108.38-110.89
						c0-66.955,49.795-109.638,103.777-109.638c64.859,0,104.196,39.335,104.196,106.708c0,8.787-0.837,18.412-1.256,19.666
						h-144.787c1.255,23.434,22.597,40.174,47.286,40.174c23.434,0,35.569-10.882,41.846-27.2L-141.984,254.496z M-199.731,185.451
						c-1.256-15.482-11.718-35.151-41.846-35.151c-26.782,0-40.173,19.668-41.429,35.151H-199.731z"/>
				</g>
			</g>
			<g>
				<g>
					<path d="M-91.487,314.336V106.362h60.677v23.853c10.044-18.412,37.243-30.129,59.839-30.129
						c30.13,0,51.054,12.137,61.514,32.642c16.321-23.436,35.988-32.642,64.444-32.642c39.334,0,76.996,22.598,76.996,79.508
						v134.742h-61.514V193.821c0-19.669-10.043-35.151-33.059-35.151s-34.732,17.157-34.732,35.568v120.098H39.909V193.821
						c0-19.669-10.044-35.151-33.477-35.151c-22.179,0-34.313,17.157-34.313,35.987v119.679H-91.487z"/>
				</g>
			</g>
			<g>
				<g>
					<path d="M554.407,106.362h63.606v223.04c0,41.845-26.363,70.719-68.627,70.719c-22.179,0-32.222-4.603-35.151-5.857v-52.727
						c2.93,1.254,9.207,2.51,18.832,2.51c14.646,0,21.34-8.368,21.34-21.341V106.362z M585.793,5.514
						c21.34,0,37.66,15.902,37.66,37.245c0,20.504-16.32,37.242-37.66,37.242c-20.087,0-36.826-16.737-36.826-37.242
						C548.967,21.416,565.706,5.514,585.793,5.514z"/>
				</g>
			</g>
			<g>
				<g>
					<path d="M711.201,5.514c21.34,0,37.661,16.74,37.661,37.245c0,20.504-16.321,37.242-37.661,37.242
						c-20.087,0-36.826-16.737-36.826-37.242C674.375,22.253,691.114,5.514,711.201,5.514z M679.815,314.336V106.362h63.606v207.974
						H679.815z"/>
				</g>
			</g>
			<g>
				<g>
					<path d="M855.558,210.559c0,33.059,22.179,51.47,48.542,51.47c24.688,0,38.498-15.482,43.102-30.965l56.073,17.156
						c-8.788,36.406-43.938,72.394-99.175,72.394c-61.933,0-111.729-45.612-111.729-110.055
						c0-64.861,48.541-110.473,109.636-110.473c57.33,0,90.806,35.151,100.012,72.393l-56.909,17.157
						c-4.604-15.902-17.158-30.965-41.847-30.965C876.899,158.67,855.558,177.082,855.558,210.559z"/>
				</g>
			</g>
			<g>
				<g>
					<path d="M1388.379,314.336h-63.607V106.362h61.514v23.853c10.88-19.667,37.242-29.291,58.165-29.291
						c52.308,0,75.741,37.242,75.741,82.854v130.559h-63.606V194.657c0-20.505-10.46-35.987-33.894-35.987
						c-21.343,0-34.312,15.063-34.312,36.406V314.336z"/>
				</g>
			</g>
			<path d="M1161.39,82.556c-69.076,0-125.073,55.997-125.073,125.074c0,69.076,55.997,125.074,125.073,125.074
				c69.077,0,125.074-55.998,125.074-125.074C1286.464,138.553,1230.467,82.556,1161.39,82.556z M1200.862,161.193
				c8.298,0,15.025,9.755,15.025,21.788c0,12.033-6.728,21.788-15.025,21.788s-15.025-9.754-15.025-21.788
				C1185.837,170.948,1192.564,161.193,1200.862,161.193z M1121.917,161.193c8.299,0,15.026,9.755,15.026,21.788
				c0,12.033-6.728,21.788-15.026,21.788c-8.298,0-15.025-9.754-15.025-21.788C1106.892,170.948,1113.619,161.193,1121.917,161.193z
				 M1219.252,250.177c-12.305,18.911-33.617,31.421-57.862,31.421c-24.244,0-45.558-12.509-57.862-31.42
				c-1.715-2.637,1.479-5.656,4.108-3.932c15.442,10.132,33.904,16.034,53.754,16.034s38.312-5.903,53.755-16.035
				C1217.773,244.521,1220.967,247.541,1219.252,250.177z"/>
			<g>
				<g>
					<path d="M443.447,95.85c-22.755,0-42.704,11.842-54.146,29.667c-11.44-17.825-31.391-29.667-54.145-29.667
						c-35.537,0-64.347,28.809-64.347,64.346c0,84.362,118.491,159.214,118.491,159.214s118.491-74.853,118.491-159.214
						C507.793,124.659,478.984,95.85,443.447,95.85z"/>
				</g>
			</g>
		</g>
	</g>
	<g display="inline">
		<path d="M1763.973,311.115h-23.971V22.643h23.971v127.855c9.988-19.178,31.166-34.761,61.131-34.761
			c45.15,0,67.525,31.564,67.525,71.119v124.26h-23.974V190.853c0-29.967-15.583-53.54-51.542-53.54
			c-31.963,0-53.141,27.969-53.141,59.132V311.115z"/>
		<path d="M2155.92,257.176c-10.787,32.363-39.555,59.134-83.506,59.134c-50.342,0-92.695-37.158-92.695-101.086
			c0-59.531,40.754-99.886,88.301-99.886c55.536,0,89.1,40.355,89.1,96.291c0,3.196-0.4,5.594-0.799,8.791h-151.829v1.597
			c0,43.951,30.767,73.117,67.923,73.117c34.361,0,53.939-20.376,62.33-45.548L2155.92,257.176z M2131.947,200.442
			c-1.197-35.16-23.572-63.528-63.527-63.528c-35.161,0-61.132,28.368-63.13,63.528H2131.947z"/>
		<path d="M2292.154,205.634l50.743-7.59c15.58-2.797,19.978-9.589,19.978-18.779c0-25.571-17.183-43.152-47.947-43.152
			c-30.366,0-50.343,17.182-53.14,44.749l-23.173-5.193c4.395-36.759,35.559-60.332,75.914-60.332
			c49.543,0,72.316,29.566,72.316,66.325v96.69c0,15.583,1.2,24.772,2.398,32.763h-23.174c-1.2-4.395-2.397-17.18-2.397-32.763
			c-9.19,17.579-31.565,37.558-66.325,37.558c-39.954,0-62.728-26.371-62.728-53.938
			C2234.62,229.608,2256.994,211.628,2292.154,205.634z M2362.875,233.204V210.43c-2,1.996-16.781,6.393-25.173,7.59l-42.351,6.393
			c-22.375,3.196-35.962,15.583-35.962,36.358c0,17.581,13.985,34.761,40.755,34.761
			C2336.904,295.532,2362.875,271.561,2362.875,233.204z"/>
		<path d="M2523.487,120.532h49.544v21.973h-49.544v114.67c0,22.773,10.789,34.361,32.362,34.361c6.793,0,14.385-1.597,17.182-2.797
			v20.777c-3.195,1.598-11.986,3.596-23.574,3.596c-30.764,0-49.941-18.38-49.941-53.54V142.505h-40.355v-21.973h14.385
			c18.777,0,27.967-9.19,27.967-27.969V60.2h21.976V120.532z"/>
		<path d="M2661.729,311.115V120.532h23.174v31.562c9.191-19.578,30.766-36.358,60.732-36.358c29.965,0,52.34,15.981,59.93,43.152
			c11.588-27.569,35.162-43.152,65.527-43.152c37.158,0,65.926,25.571,65.926,69.521v125.857h-23.974v-123.06
			c0-28.768-16.78-51.142-48.745-51.142c-31.963,0-53.14,26.37-53.14,57.535v116.667h-23.972v-123.06
			c0-28.768-16.381-51.142-48.744-51.142c-31.965,0-53.141,25.97-53.141,57.535v116.667H2661.729z"/>
		<path d="M3084.035,205.634l50.744-7.59c15.582-2.797,19.979-9.589,19.979-18.779c0-25.571-17.182-43.152-47.947-43.152
			c-30.365,0-50.342,17.182-53.139,44.749l-23.174-5.193c4.395-36.759,35.56-60.332,75.912-60.332
			c49.545,0,72.319,29.566,72.319,66.325v96.69c0,15.583,1.198,24.772,2.397,32.763h-23.175c-1.198-4.395-2.396-17.18-2.396-32.763
			c-9.19,17.579-31.564,37.558-66.325,37.558c-39.956,0-62.73-26.371-62.73-53.938
			C3026.501,229.608,3048.876,211.628,3084.035,205.634z M3154.758,233.204V210.43c-1.998,1.996-16.783,6.393-25.172,7.59
			l-42.354,6.393c-22.375,3.196-35.959,15.583-35.959,36.358c0,17.581,13.986,34.761,40.754,34.761
			C3128.785,295.532,3154.758,271.561,3154.758,233.204z"/>
		<path d="M3281.002,387.029V120.532h23.576v37.955c9.588-19.578,30.766-42.352,69.122-42.352c53.937,0,86.3,43.152,86.3,99.487
			c0,56.736-33.561,100.287-87.102,100.287c-36.756,0-58.732-21.575-68.32-40.754v111.873H3281.002z M3369.703,137.312
			c-39.954,0-65.525,33.96-65.525,78.311c0,45.148,25.571,79.11,65.525,79.11c39.955,0,65.926-34.361,65.926-79.11
			C3435.629,170.874,3409.658,137.312,3369.703,137.312z"/>
	</g>
</g>
<g id="Layer_1">
	<g>
		<g>
			<g>
				<g>
					<path d="M53.924,61.341c-1.848,6.624-7.934,12.17-17.637,12.17c-10.553,0-19.949-7.548-19.949-20.411
						c0-12.324,9.165-20.18,19.102-20.18c11.938,0,19.179,7.24,19.179,19.641c0,1.618-0.155,3.389-0.231,3.62h-26.65
						c0.231,4.313,4.16,7.395,8.704,7.395c4.312,0,6.547-2.003,7.702-5.006L53.924,61.341z M43.295,48.633
						c-0.23-2.85-2.156-6.47-7.701-6.47c-4.93,0-7.395,3.621-7.626,6.47H43.295z"/>
				</g>
			</g>
			<g>
				<g>
					<path d="M63.22,72.356v-38.28h11.168v4.391c1.849-3.389,6.854-5.545,11.014-5.545c5.546,0,9.397,2.234,11.322,6.008
						c3.004-4.313,6.624-6.008,11.861-6.008c7.239,0,14.172,4.159,14.172,14.634v24.801h-11.321V50.174
						c0-3.621-1.85-6.47-6.085-6.47c-4.237,0-6.394,3.158-6.394,6.546v22.105H87.404V50.174c0-3.621-1.849-6.47-6.162-6.47
						c-4.082,0-6.314,3.158-6.314,6.624v22.028H63.22z"/>
				</g>
			</g>
			<g>
				<g>
					<path d="M182.103,34.076h11.708v41.053c0,7.702-4.853,13.017-12.631,13.017c-4.083,0-5.932-0.847-6.471-1.078v-9.705
						c0.539,0.231,1.694,0.462,3.467,0.462c2.695,0,3.927-1.541,3.927-3.928V34.076z M187.88,15.514
						c3.928,0,6.932,2.927,6.932,6.855c0,3.774-3.004,6.855-6.932,6.855c-3.697,0-6.778-3.081-6.778-6.855
						C181.102,18.44,184.183,15.514,187.88,15.514z"/>
				</g>
			</g>
			<g>
				<g>
					<path d="M210.963,15.514c3.928,0,6.932,3.081,6.932,6.855c0,3.774-3.004,6.855-6.932,6.855c-3.697,0-6.779-3.081-6.779-6.855
						C204.184,18.595,207.266,15.514,210.963,15.514z M205.186,72.356v-38.28h11.707v38.28H205.186z"/>
				</g>
			</g>
			<g>
				<g>
					<path d="M237.533,53.254c0,6.085,4.082,9.474,8.935,9.474c4.545,0,7.086-2.85,7.934-5.7l10.321,3.158
						c-1.618,6.701-8.088,13.325-18.255,13.325c-11.399,0-20.564-8.396-20.564-20.257c0-11.938,8.934-20.333,20.18-20.333
						c10.552,0,16.714,6.47,18.408,13.324l-10.476,3.158c-0.847-2.927-3.157-5.699-7.702-5.699
						C241.461,43.704,237.533,47.093,237.533,53.254z"/>
				</g>
			</g>
			<g>
				<g>
					<path d="M335.604,72.356h-11.707v-38.28h11.322v4.391c2.002-3.62,6.854-5.392,10.705-5.392c9.628,0,13.941,6.855,13.941,15.25
						v24.031h-11.707V50.328c0-3.774-1.926-6.624-6.238-6.624c-3.929,0-6.316,2.772-6.316,6.701V72.356z"/>
				</g>
			</g>
			<path d="M293.825,29.694c-12.715,0-23.021,10.307-23.021,23.021s10.307,23.021,23.021,23.021
				c12.714,0,23.021-10.307,23.021-23.021S306.539,29.694,293.825,29.694z M301.09,44.168c1.528,0,2.766,1.796,2.766,4.01
				c0,2.215-1.237,4.01-2.766,4.01c-1.526,0-2.765-1.795-2.765-4.01C298.325,45.964,299.563,44.168,301.09,44.168z M286.56,44.168
				c1.526,0,2.766,1.796,2.766,4.01c0,2.215-1.239,4.01-2.766,4.01c-1.527,0-2.766-1.795-2.766-4.01
				C283.794,45.964,285.032,44.168,286.56,44.168z M304.475,60.547c-2.264,3.48-6.188,5.783-10.649,5.783
				c-4.463,0-8.386-2.303-10.651-5.783c-0.314-0.485,0.273-1.042,0.757-0.724c2.843,1.865,6.241,2.951,9.895,2.951
				s7.052-1.086,9.894-2.952C304.203,59.505,304.791,60.062,304.475,60.547z"/>
			<g>
				<g>
					<path d="M161.68,32.141c-4.188,0-7.86,2.179-9.966,5.46c-2.106-3.281-5.778-5.46-9.966-5.46
						c-6.541,0-11.844,5.302-11.844,11.843c0,15.528,21.81,29.306,21.81,29.306s21.81-13.778,21.81-29.306
						C173.523,37.443,168.22,32.141,161.68,32.141z"/>
				</g>
			</g>
		</g>
	</g>
	<g>
		<path d="M404.737,71.763h-4.412V18.667h4.412V42.2c1.837-3.53,5.736-6.398,11.251-6.398c8.311,0,12.43,5.81,12.43,13.09v22.872
			h-4.413V49.627c0-5.516-2.868-9.855-9.487-9.855c-5.883,0-9.78,5.148-9.78,10.884V71.763z"/>
		<path d="M476.879,61.834c-1.985,5.958-7.281,10.885-15.369,10.885c-9.267,0-17.062-6.84-17.062-18.606
			c0-10.958,7.501-18.386,16.252-18.386c10.224,0,16.4,7.428,16.4,17.724c0,0.588-0.072,1.029-0.146,1.618h-27.946v0.294
			c0,8.09,5.663,13.458,12.503,13.458c6.323,0,9.927-3.75,11.471-8.384L476.879,61.834z M472.467,51.392
			c-0.221-6.471-4.338-11.693-11.693-11.693c-6.471,0-11.252,5.222-11.619,11.693H472.467z"/>
		<path d="M501.955,52.348l9.339-1.396c2.868-0.515,3.677-1.765,3.677-3.457c0-4.707-3.162-7.942-8.824-7.942
			c-5.59,0-9.267,3.163-9.781,8.237l-4.266-0.956c0.81-6.766,6.545-11.105,13.973-11.105c9.119,0,13.312,5.442,13.312,12.208v17.797
			c0,2.869,0.221,4.56,0.441,6.031h-4.265c-0.223-0.809-0.442-3.162-0.442-6.031c-1.692,3.236-5.81,6.913-12.207,6.913
			c-7.354,0-11.546-4.854-11.546-9.928C491.365,56.761,495.483,53.451,501.955,52.348z M514.971,57.422v-4.191
			c-0.367,0.368-3.088,1.177-4.633,1.397l-7.795,1.177c-4.119,0.588-6.619,2.868-6.619,6.692c0,3.236,2.574,6.398,7.502,6.398
			C510.191,68.895,514.971,64.482,514.971,57.422z"/>
		<path d="M544.533,36.684h9.119v4.045h-9.119v21.106c0,4.192,1.986,6.325,5.957,6.325c1.25,0,2.647-0.294,3.162-0.515v3.825
			c-0.588,0.294-2.205,0.662-4.34,0.662c-5.661,0-9.191-3.383-9.191-9.854V40.729h-7.428v-4.045h2.648
			c3.455,0,5.148-1.691,5.148-5.147V25.58h4.043V36.684z"/>
		<path d="M569.979,71.763v-35.08h4.266v5.81c1.691-3.604,5.662-6.692,11.179-6.692c5.515,0,9.634,2.941,11.03,7.942
			c2.133-5.074,6.473-7.942,12.061-7.942c6.841,0,12.135,4.707,12.135,12.796v23.166h-4.412V49.112c0-5.295-3.089-9.413-8.973-9.413
			s-9.78,4.854-9.78,10.59v21.474h-4.413V49.112c0-5.295-3.014-9.413-8.972-9.413c-5.884,0-9.781,4.78-9.781,10.59v21.474H569.979z"
			/>
		<path d="M647.709,52.348l9.34-1.396c2.867-0.515,3.678-1.765,3.678-3.457c0-4.707-3.163-7.942-8.825-7.942
			c-5.59,0-9.267,3.163-9.781,8.237l-4.266-0.956c0.81-6.766,6.545-11.105,13.973-11.105c9.12,0,13.312,5.442,13.312,12.208v17.797
			c0,2.869,0.22,4.56,0.441,6.031h-4.266c-0.221-0.809-0.441-3.162-0.441-6.031c-1.691,3.236-5.811,6.913-12.207,6.913
			c-7.354,0-11.547-4.854-11.547-9.928C637.119,56.761,641.237,53.451,647.709,52.348z M660.727,57.422v-4.191
			c-0.368,0.368-3.09,1.177-4.634,1.397l-7.796,1.177c-4.118,0.588-6.617,2.868-6.617,6.692c0,3.236,2.573,6.398,7.5,6.398
			C655.946,68.895,660.727,64.482,660.727,57.422z"/>
		<path d="M683.963,85.736V36.684h4.339v6.987c1.765-3.604,5.663-7.796,12.724-7.796c9.927,0,15.884,7.943,15.884,18.312
			c0,10.443-6.177,18.459-16.032,18.459c-6.765,0-10.811-3.971-12.575-7.501v20.592H683.963z M700.29,39.772
			c-7.354,0-12.062,6.251-12.062,14.414c0,8.31,4.707,14.561,12.062,14.561c7.354,0,12.134-6.325,12.134-14.561
			C712.424,45.95,707.644,39.772,700.29,39.772z"/>
	</g>
</g>
</svg>
